<?xml version="1.0" encoding="utf-8"?>
<!-- Generator: Adobe Illustrator 24.2.1, SVG Export Plug-In . SVG Version: 6.00 Build 0)  -->
<svg version="1.1" id="Layer_1" xmlns="http://www.w3.org/2000/svg" xmlns:xlink="http://www.w3.org/1999/xlink" x="0px" y="0px"
	 viewBox="0 0 492 239.6" style="enable-background:new 0 0 492 239.6;" xml:space="preserve">
<style type="text/css">
	.st0{enable-background:new    ;}
	.st1{clip-path:url(#SVGID_2_);}
	.st2{fill:#55FFBC;}
	.st3{clip-path:url(#SVGID_4_);}
	.st4{clip-path:url(#SVGID_6_);}
	.st5{clip-path:url(#SVGID_8_);}
	.st6{fill:none;}
	.st7{fill:#514CCE;}
	.st8{clip-path:url(#SVGID_12_);fill:#55FFBC;}
	.st9{clip-path:url(#SVGID_16_);fill:#55FFBC;}
	.st10{clip-path:url(#SVGID_18_);fill:#55FFBC;}
	.st11{clip-path:url(#SVGID_20_);fill:#55FFBC;}
</style>
<g>
	<g>
		<g class="st0">
			<g class="st0">
				<g>
					<g>
						<defs>
							<polygon id="SVGID_1_" points="110.8,25.5 98.9,0.1 217.1,0.5 229,26 							"/>
						</defs>
						<clipPath id="SVGID_2_">
							<use xlink:href="#SVGID_1_"  style="overflow:visible;"/>
						</clipPath>
						<g class="st1">
							<path class="st2" d="M106.1,5.2l108.6,0.4l7.1,15.2l-108.6-0.4L106.1,5.2 M98.9,0.1l11.9,25.4L229,25.9L217.1,0.5L98.9,0.1
								L98.9,0.1z"/>
						</g>
					</g>
				</g>
			</g>
			<g class="st0">
				<g>
					<g>
						<defs>
							<polygon id="SVGID_3_" points="229,26 130,239.5 118.2,214 217.1,0.5 							"/>
						</defs>
						<clipPath id="SVGID_4_">
							<use xlink:href="#SVGID_3_"  style="overflow:visible;"/>
						</clipPath>
						<g class="st3">
							<path class="st2" d="M217.1,10.7l7.1,15.2L130,229.2l-7.1-15.2L217.1,10.7 M217.1,0.5L118.2,214l11.9,25.4L229,25.9
								L217.1,0.5L217.1,0.5z"/>
						</g>
					</g>
				</g>
			</g>
			<g class="st0">
				<g>
					<g>
						<defs>
							<polygon id="SVGID_5_" points="130,239.5 11.9,239 0,213.6 118.2,214 							"/>
						</defs>
						<clipPath id="SVGID_6_">
							<use xlink:href="#SVGID_5_"  style="overflow:visible;"/>
						</clipPath>
						<g class="st4">
							<path class="st2" d="M7.2,218.7l108.6,0.4l7.1,15.2l-108.6-0.4L7.2,218.7 M0,213.6L11.9,239l118.2,0.4L118.2,214L0,213.6
								L0,213.6z"/>
						</g>
					</g>
				</g>
			</g>
			<g class="st0">
				<g>
					<g>
						<defs>
							<polygon id="SVGID_7_" points="11.9,239 0,213.6 98.9,0.1 110.8,25.5 							"/>
						</defs>
						<clipPath id="SVGID_8_">
							<use xlink:href="#SVGID_7_"  style="overflow:visible;"/>
						</clipPath>
						<g class="st5">
							<path class="st2" d="M98.9,10.3l7.1,15.2L11.9,228.8l-7.1-15.2L98.9,10.3 M98.9,0.1L0,213.6L11.9,239l98.9-213.5L98.9,0.1
								L98.9,0.1z"/>
						</g>
					</g>
				</g>
			</g>
		</g>
	</g>
	<g>
		<polygon class="st6" points="378.8,26 284.3,25.7 256.6,85.5 303.9,187.7 		"/>
		<polygon class="st6" points="205.1,25.4 110.6,25.8 185.6,187.7 232.9,85.5 		"/>
		<polygon class="st6" points="280.9,6.3 287.1,19.7 381.7,20 387.8,6.7 		"/>
		<polygon class="st6" points="244.8,111 197.4,213.2 197.7,213.8 215.2,213.8 291.9,213.6 292.1,213.2 		"/>
		<polygon class="st6" points="278.8,25.7 272.5,12.2 247.6,66 253.8,79.5 		"/>
		<polygon class="st6" points="306.7,193.7 313,207.2 396.9,26.1 396.9,26.1 384.4,26 		"/>
		<polygon class="st6" points="387.2,20 394.1,20.1 390.6,12.6 		"/>
		<polygon class="st6" points="242,105 235.7,91.6 188.4,193.7 194.7,207.2 		"/>
		<polygon class="st2" points="384.4,26 396.9,26.1 394.1,20.1 387.2,20 		"/>
		<polygon class="st2" points="378.8,26 381.7,20 287.1,19.7 280.9,6.3 387.8,6.7 390.6,0.6 272.5,0.2 284.3,25.7 		"/>
		<polygon class="st2" points="390.6,12.6 394.1,20.1 394.1,20.1 387.8,6.7 387.8,6.7 381.7,20 387.2,20 		"/>
		<polygon class="st2" points="306.7,193.7 384.4,26 378.8,26 303.9,187.7 		"/>
		<polygon class="st2" points="291.9,213.6 292.2,213.6 292.1,213.2 		"/>
		<polygon class="st2" points="396.9,26.1 313,207.2 315.8,213.2 402.5,26.1 		"/>
		<polygon class="st2" points="303.6,239.6 303.9,238.9 303.3,238.9 		"/>
		<polygon class="st2" points="387.2,20 381.7,20 378.8,26 384.4,26 		"/>
		<polygon class="st2" points="387.8,6.7 394.1,20.1 394.1,20.1 396.9,26.1 402.5,26.1 390.6,0.6 		"/>
		<polygon class="st2" points="197.7,213.9 215.2,213.8 197.7,213.8 		"/>
		<polygon class="st2" points="185.4,239.1 185.8,239.1 185.6,238.8 		"/>
		<polygon class="st2" points="215.2,239.2 303.6,239.6 303.3,238.9 		"/>
		<polygon class="st2" points="197.4,213.2 244.8,111 242,105 194.7,207.2 		"/>
		<polygon class="st2" points="247.6,66 272.5,12.2 278.8,25.7 253.8,79.5 256.6,85.5 284.3,25.7 272.5,0.2 244.8,60 		"/>
		<line class="st6" x1="174" y1="213.7" x2="173.8" y2="213.2"/>
		<polygon class="st2" points="232.9,85.5 185.6,187.7 188.4,193.7 235.7,91.6 		"/>
		<g>
			<polygon class="st7" points="185.9,239.4 215.2,239.2 186,239.1 			"/>
		</g>
		<g>
			<polygon class="st7" points="295.2,233.5 288.9,220.1 195,219.8 188.7,233.2 			"/>
		</g>
		<g>
			<polygon class="st7" points="291.7,214.1 291.9,213.6 215.2,213.8 			"/>
		</g>
		<g>
			<polygon class="st7" points="303.9,238.9 304,238.9 303.9,238.8 			"/>
		</g>
		<g>
			<polygon class="st7" points="292.2,213.6 291.9,213.6 291.7,214.1 303.3,238.9 303.9,238.9 303.9,238.8 			"/>
		</g>
		<g>
			<polygon class="st7" points="291.7,214.1 215.2,213.8 197.7,213.9 195,219.8 288.9,220.1 295.2,233.5 188.7,233.2 186,239.1 
				215.2,239.2 303.3,238.9 			"/>
		</g>
		<g>
			<polygon class="st7" points="292.1,213.2 303.9,187.7 256.6,85.5 244.8,111 			"/>
		</g>
		<g>
			<polygon class="st7" points="232.9,85.5 244.8,60 217,0 205.1,25.4 			"/>
		</g>
		<g>
			<polygon class="st7" points="297.5,213.6 310.1,213.5 313,207.2 306.7,193.7 			"/>
		</g>
		<g>
			<polygon class="st7" points="244.8,111 256.6,85.5 244.8,60 232.9,85.5 			"/>
		</g>
		<g>
			<polygon class="st7" points="315.9,213.5 315.8,213.2 315.6,213.5 			"/>
		</g>
		<g>
			<polygon class="st7" points="310.1,213.5 315.6,213.5 315.8,213.2 313,207.2 			"/>
		</g>
		<g>
			<polygon class="st7" points="306.7,193.7 303.9,187.7 292.1,213.2 292.2,213.6 297.5,213.6 			"/>
		</g>
		<g>
			<polygon class="st7" points="303.9,238.8 304,238.9 315.9,213.5 315.6,213.5 			"/>
		</g>
		<g>
			<polygon class="st7" points="297.3,214.1 303.6,227.6 310.1,213.5 297.5,213.6 			"/>
		</g>
		<g>
			<polygon class="st7" points="297.3,214.1 297.5,213.6 292.2,213.6 303.9,238.8 315.6,213.5 310.1,213.5 303.6,227.6 			"/>
		</g>
		<g>
			<polygon class="st7" points="205.1,25.4 217,0 98.8,0.4 110.6,25.8 			"/>
		</g>
		<g>
			<polygon class="st7" points="183.8,223.7 185.4,227.1 188.9,219.8 182,219.8 			"/>
		</g>
		<g>
			<polygon class="st7" points="197.7,213.8 197.4,213.2 197.2,213.8 			"/>
		</g>
		<g>
			<polygon class="st7" points="194.7,207.2 188.4,193.7 179.1,213.7 179.1,213.7 191.6,213.7 			"/>
		</g>
		<g>
			<polygon class="st7" points="110.6,25.8 86.9,25.9 173.8,213.2 185.6,187.7 			"/>
		</g>
		<g>
			<polygon class="st7" points="185.8,239.1 185.9,239.4 186,239.1 			"/>
		</g>
		<g>
			<polygon class="st7" points="188.2,233.2 188.2,233.2 188.7,233.2 195,219.8 194.4,219.8 			"/>
		</g>
		<g>
			<polygon class="st7" points="182,219.8 188.9,219.8 191.6,213.7 179.1,213.7 183.8,223.7 			"/>
		</g>
		<g>
			<polygon class="st7" points="188.7,233.2 188.2,233.2 188.2,233.2 185.6,238.8 185.8,239.1 186,239.1 			"/>
		</g>
		<g>
			<polygon class="st7" points="197.2,213.8 194.4,219.8 195,219.8 197.7,213.9 197.7,213.8 			"/>
		</g>
		<g>
			<path class="st7" d="M188.9,219.8"/>
		</g>
		<g>
			<polygon class="st7" points="98.8,0.4 86.9,25.9 110.6,25.8 			"/>
		</g>
	</g>
	<g>
		<g class="st0">
			<g class="st0">
				<line class="st6" x1="456.6" y1="127.2" x2="436.2" y2="112.4"/>
			</g>
		</g>
	</g>
	<g>
		<g class="st0">
			<g class="st0">
				<g>
					<polygon id="SVGID_9_" class="st2" points="373.8,214 362,239.5 480.1,239 492,213.6 					"/>
				</g>
				<g>
					<g>
						<defs>
							<polygon id="SVGID_10_" points="373.8,214 362,239.5 480.1,239 492,213.6 							"/>
						</defs>
						<clipPath id="SVGID_12_">
							<use xlink:href="#SVGID_10_"  style="overflow:visible;"/>
						</clipPath>
						<polygon class="st8" points="373.8,214 362,239.5 480.1,239 492,213.6 						"/>
					</g>
				</g>
			</g>
			<g class="st0">
				<g>
					<polygon id="SVGID_11_" class="st2" points="492,213.6 393.1,0.1 381.2,25.6 480.1,239 					"/>
				</g>
				<g>
					<g>
						<defs>
							<polygon id="SVGID_14_" points="492,213.6 393.1,0.1 381.2,25.6 480.1,239 							"/>
						</defs>
						<clipPath id="SVGID_16_">
							<use xlink:href="#SVGID_14_"  style="overflow:visible;"/>
						</clipPath>
						<polygon class="st9" points="492,213.6 393.1,0.1 381.2,25.6 480.1,239 						"/>
					</g>
				</g>
			</g>
			<g class="st0">
				<g>
					<polygon id="SVGID_13_" class="st2" points="393.1,0.1 274.9,0.5 263,26 381.2,25.6 					"/>
				</g>
				<g>
					<g>
						<defs>
							<polygon id="SVGID_17_" points="393.1,0.1 274.9,0.5 263,26 381.2,25.6 							"/>
						</defs>
						<clipPath id="SVGID_18_">
							<use xlink:href="#SVGID_17_"  style="overflow:visible;"/>
						</clipPath>
						<polygon class="st10" points="393.1,0.1 274.9,0.5 263,26 381.2,25.6 						"/>
					</g>
				</g>
			</g>
			<g class="st0">
				<g>
					<polygon id="SVGID_15_" class="st2" points="274.9,0.5 263,26 362,239.5 373.8,214 					"/>
				</g>
				<g>
					<g>
						<defs>
							<polygon id="SVGID_19_" points="274.9,0.5 263,26 362,239.5 373.8,214 							"/>
						</defs>
						<clipPath id="SVGID_20_">
							<use xlink:href="#SVGID_19_"  style="overflow:visible;"/>
						</clipPath>
						<polygon class="st11" points="274.9,0.5 263,26 362,239.5 373.8,214 						"/>
					</g>
				</g>
			</g>
		</g>
	</g>
	<polygon class="st7" points="185.6,239.3 173.8,213.8 185.6,188.2 197.7,214.4 	"/>
</g>
</svg>
