<?xml version="1.0" encoding="utf-8"?>
<!-- Generator: Adobe Illustrator 24.2.1, SVG Export Plug-In . SVG Version: 6.00 Build 0)  -->
<svg version="1.1" id="Layer_1" xmlns="http://www.w3.org/2000/svg" xmlns:xlink="http://www.w3.org/1999/xlink" x="0px" y="0px"
	 viewBox="0 0 1080 1080" style="enable-background:new 0 0 1080 1080;" xml:space="preserve">
<style type="text/css">
	.st0{enable-background:new    ;}
	.st1{clip-path:url(#SVGID_2_);}
	.st2{fill:#55FFBC;}
	.st3{clip-path:url(#SVGID_4_);}
	.st4{clip-path:url(#SVGID_6_);}
	.st5{clip-path:url(#SVGID_8_);}
	.st6{fill:none;}
	.st7{fill:#514CCE;}
	.st8{clip-path:url(#SVGID_12_);fill:#55FFBC;}
	.st9{clip-path:url(#SVGID_16_);fill:#55FFBC;}
	.st10{clip-path:url(#SVGID_18_);fill:#55FFBC;}
	.st11{clip-path:url(#SVGID_20_);fill:#55FFBC;}
	.st12{fill:#5193CE;}
</style>
<g>
	<g class="st0">
		<g class="st0">
			<g>
				<g>
					<defs>
						<polygon id="SVGID_1_" points="261.5,243.7 238.4,204 468.2,204.6 491.3,244.4 						"/>
					</defs>
					<clipPath id="SVGID_2_">
						<use xlink:href="#SVGID_1_"  style="overflow:visible;"/>
					</clipPath>
					<g class="st1">
						<path class="st2" d="M252.3,212l211.2,0.6l13.8,23.7l-211.2-0.6L252.3,212 M238.4,204l23.1,39.7l229.8,0.6l-23.1-39.7
							L238.4,204L238.4,204z"/>
					</g>
				</g>
			</g>
		</g>
		<g class="st0">
			<g>
				<g>
					<defs>
						<polygon id="SVGID_3_" points="491.3,244.4 298.9,577.6 275.8,537.8 468.2,204.6 						"/>
					</defs>
					<clipPath id="SVGID_4_">
						<use xlink:href="#SVGID_3_"  style="overflow:visible;"/>
					</clipPath>
					<g class="st3">
						<path class="st2" d="M468.2,220.6l13.8,23.8L298.9,561.6l-13.8-23.8L468.2,220.6 M468.2,204.6L275.8,537.8l23.1,39.7
							l192.4-333.2L468.2,204.6L468.2,204.6z"/>
					</g>
				</g>
			</g>
		</g>
		<g class="st0">
			<g>
				<g>
					<defs>
						<polygon id="SVGID_5_" points="298.9,577.6 69.1,576.9 46,537.2 275.8,537.8 						"/>
					</defs>
					<clipPath id="SVGID_6_">
						<use xlink:href="#SVGID_5_"  style="overflow:visible;"/>
					</clipPath>
					<g class="st4">
						<path class="st2" d="M60,545.2l211.2,0.6l13.8,23.7l-211.2-0.6L60,545.2 M46,537.2l23.1,39.7l229.8,0.7l-23.1-39.7L46,537.2
							L46,537.2z"/>
					</g>
				</g>
			</g>
		</g>
		<g class="st0">
			<g>
				<g>
					<defs>
						<polygon id="SVGID_7_" points="69.1,576.9 46,537.2 238.4,204 261.5,243.7 						"/>
					</defs>
					<clipPath id="SVGID_8_">
						<use xlink:href="#SVGID_7_"  style="overflow:visible;"/>
					</clipPath>
					<g class="st5">
						<path class="st2" d="M238.4,220l13.8,23.8L69.1,561l-13.8-23.8L238.4,220 M238.4,204L46,537.2l23.1,39.7l192.4-333.2
							L238.4,204L238.4,204z"/>
					</g>
				</g>
			</g>
		</g>
	</g>
</g>
<g>
	<polygon class="st6" points="782.8,244.6 599,244.1 545.1,337.5 637.1,496.9 	"/>
	<polygon class="st6" points="444.9,243.7 261.1,244.2 407,496.9 499,337.5 	"/>
	<polygon class="st6" points="592.3,213.8 604.4,234.7 788.3,235.2 800.3,214.4 	"/>
	<polygon class="st6" points="522.1,377.3 430,536.8 430.5,537.7 464.5,537.7 613.8,537.3 614.1,536.8 	"/>
	<polygon class="st6" points="588.2,244.1 576,223.1 527.5,307 539.7,328.1 	"/>
	<polygon class="st6" points="642.6,506.3 654.7,527.4 817.9,244.7 817.9,244.7 793.7,244.6 	"/>
	<polygon class="st6" points="799.1,235.2 812.4,235.3 805.7,223.7 	"/>
	<polygon class="st6" points="516.6,367.9 504.5,346.9 412.4,506.3 424.6,527.4 	"/>
	<polygon class="st2" points="793.7,244.6 817.9,244.7 812.4,235.3 799.1,235.2 	"/>
	<polygon class="st2" points="782.8,244.6 788.3,235.2 604.4,234.7 592.3,213.8 800.3,214.4 805.7,205 575.9,204.3 599,244.1 	"/>
	<polygon class="st2" points="805.7,223.7 812.4,235.3 812.4,235.3 800.3,214.4 800.3,214.4 788.3,235.2 799.1,235.2 	"/>
	<polygon class="st2" points="642.6,506.3 793.7,244.6 782.8,244.6 637.1,496.9 	"/>
	<polygon class="st2" points="613.8,537.3 614.4,537.3 614.1,536.8 	"/>
	<polygon class="st2" points="817.9,244.7 654.7,527.4 660.2,536.8 828.8,244.7 	"/>
	<polygon class="st2" points="636.4,577.9 637,576.9 635.9,576.9 	"/>
	<polygon class="st2" points="799.1,235.2 788.3,235.2 782.8,244.6 793.7,244.6 	"/>
	<polygon class="st2" points="800.3,214.4 812.4,235.3 812.4,235.3 817.9,244.7 828.8,244.7 805.7,205 	"/>
	<polygon class="st2" points="430.6,537.8 464.5,537.7 430.5,537.7 	"/>
	<polygon class="st2" points="406.6,577.2 407.3,577.2 407,576.7 	"/>
	<polygon class="st2" points="464.5,577.4 636.4,577.9 635.9,576.9 	"/>
	<polygon class="st2" points="430,536.8 522.1,377.3 516.6,367.9 424.6,527.4 	"/>
	<polygon class="st2" points="527.5,307 576,223.1 588.2,244.1 539.7,328.1 545.1,337.5 599,244.1 575.9,204.3 522.1,297.6 	"/>
	<line class="st6" x1="384.4" y1="537.5" x2="384" y2="536.8"/>
	<polygon class="st2" points="499,337.5 407,496.9 412.4,506.3 504.5,346.9 	"/>
	<g>
		<polygon class="st7" points="407.5,577.6 464.5,577.4 407.7,577.2 		"/>
	</g>
	<g>
		<polygon class="st7" points="620.1,568.5 607.9,547.5 425.3,547 413.1,567.9 		"/>
	</g>
	<g>
		<polygon class="st7" points="613.3,538.2 613.8,537.3 464.5,537.7 		"/>
	</g>
	<g>
		<polygon class="st7" points="637,576.9 637.3,576.9 637.1,576.7 		"/>
	</g>
	<g>
		<polygon class="st7" points="614.4,537.3 613.8,537.3 613.3,538.2 635.9,576.9 637,576.9 637.1,576.7 		"/>
	</g>
	<g>
		<polygon class="st7" points="613.3,538.2 464.5,537.7 430.6,537.8 425.3,547 607.9,547.5 620.1,568.5 413.1,567.9 407.7,577.2 
			464.5,577.4 635.9,576.9 		"/>
	</g>
	<g>
		<polygon class="st7" points="614.1,536.8 637.1,496.9 545.1,337.5 522.1,377.3 		"/>
	</g>
	<g>
		<polygon class="st7" points="499,337.5 522.1,297.6 468,204 444.9,243.7 		"/>
	</g>
	<g>
		<polygon class="st7" points="624.7,537.3 649.1,537.2 654.7,527.4 642.6,506.3 		"/>
	</g>
	<g>
		<polygon class="st7" points="522.1,377.3 545.1,337.5 522.1,297.6 499,337.5 		"/>
	</g>
	<g>
		<polygon class="st7" points="660.4,537.2 660.2,536.8 659.9,537.2 		"/>
	</g>
	<g>
		<polygon class="st7" points="649.1,537.2 659.9,537.2 660.2,536.8 654.7,527.4 		"/>
	</g>
	<g>
		<polygon class="st7" points="642.6,506.3 637.1,496.9 614.1,536.8 614.4,537.3 624.7,537.3 		"/>
	</g>
	<g>
		<polygon class="st7" points="637.1,576.7 637.3,576.9 660.4,537.2 659.9,537.2 		"/>
	</g>
	<g>
		<polygon class="st7" points="624.2,538.2 636.4,559.2 649.1,537.2 624.7,537.3 		"/>
	</g>
	<g>
		<polygon class="st7" points="624.2,538.2 624.7,537.3 614.4,537.3 637.1,576.7 659.9,537.2 649.1,537.2 636.4,559.2 		"/>
	</g>
	<g>
		<polygon class="st7" points="444.9,243.7 468,204 238.2,204.6 261.1,244.2 		"/>
	</g>
	<g>
		<polygon class="st7" points="403.5,553.2 406.6,558.5 413.3,547 399.9,547 		"/>
	</g>
	<g>
		<polygon class="st7" points="430.5,537.7 430,536.8 429.5,537.7 		"/>
	</g>
	<g>
		<polygon class="st7" points="424.6,527.4 412.4,506.3 394.4,537.5 394.4,537.5 418.7,537.6 		"/>
	</g>
	<g>
		<polygon class="st7" points="261.1,244.2 215.1,244.4 384,536.8 407,496.9 		"/>
	</g>
	<g>
		<polygon class="st7" points="407.3,577.2 407.5,577.6 407.7,577.2 		"/>
	</g>
	<g>
		<polygon class="st7" points="412.1,567.9 412.1,567.9 413.1,567.9 425.3,547 424.1,547 		"/>
	</g>
	<g>
		<polygon class="st7" points="399.9,547 413.3,547 418.7,537.6 394.4,537.5 403.5,553.2 		"/>
	</g>
	<g>
		<polygon class="st7" points="413.1,567.9 412.1,567.9 412.1,567.9 407,576.7 407.3,577.2 407.7,577.2 		"/>
	</g>
	<g>
		<polygon class="st7" points="429.5,537.7 424.1,547 425.3,547 430.6,537.8 430.5,537.7 		"/>
	</g>
	<g>
		<path class="st7" d="M413.3,547"/>
	</g>
	<g>
		<polygon class="st7" points="238.2,204.6 215.1,244.4 261.1,244.2 		"/>
	</g>
</g>
<g>
	<g class="st0">
		<g class="st0">
			<line class="st6" x1="934.1" y1="436.3" x2="894.4" y2="413.2"/>
		</g>
	</g>
</g>
<g>
	<g class="st0">
		<g class="st0">
			<g>
				<polygon id="SVGID_9_" class="st2" points="773.1,538.2 750,577.9 979.8,577.2 1002.9,537.5 				"/>
			</g>
			<g>
				<g>
					<defs>
						<polygon id="SVGID_10_" points="773.1,538.2 750,577.9 979.8,577.2 1002.9,537.5 						"/>
					</defs>
					<clipPath id="SVGID_12_">
						<use xlink:href="#SVGID_10_"  style="overflow:visible;"/>
					</clipPath>
					<polygon class="st8" points="773.1,538.2 750,577.9 979.8,577.2 1002.9,537.5 					"/>
				</g>
			</g>
		</g>
		<g class="st0">
			<g>
				<polygon id="SVGID_11_" class="st2" points="1002.9,537.5 810.5,204.3 787.4,244.1 979.8,577.2 				"/>
			</g>
			<g>
				<g>
					<defs>
						<polygon id="SVGID_14_" points="1002.9,537.5 810.5,204.3 787.4,244.1 979.8,577.2 						"/>
					</defs>
					<clipPath id="SVGID_16_">
						<use xlink:href="#SVGID_14_"  style="overflow:visible;"/>
					</clipPath>
					<polygon class="st9" points="1002.9,537.5 810.5,204.3 787.4,244.1 979.8,577.2 					"/>
				</g>
			</g>
		</g>
		<g class="st0">
			<g>
				<polygon id="SVGID_13_" class="st2" points="810.5,204.3 580.7,205 557.6,244.7 787.4,244.1 				"/>
			</g>
			<g>
				<g>
					<defs>
						<polygon id="SVGID_17_" points="810.5,204.3 580.7,205 557.6,244.7 787.4,244.1 						"/>
					</defs>
					<clipPath id="SVGID_18_">
						<use xlink:href="#SVGID_17_"  style="overflow:visible;"/>
					</clipPath>
					<polygon class="st10" points="810.5,204.3 580.7,205 557.6,244.7 787.4,244.1 					"/>
				</g>
			</g>
		</g>
		<g class="st0">
			<g>
				<polygon id="SVGID_15_" class="st2" points="580.7,205 557.6,244.7 750,577.9 773.1,538.2 				"/>
			</g>
			<g>
				<g>
					<defs>
						<polygon id="SVGID_19_" points="580.7,205 557.6,244.7 750,577.9 773.1,538.2 						"/>
					</defs>
					<clipPath id="SVGID_20_">
						<use xlink:href="#SVGID_19_"  style="overflow:visible;"/>
					</clipPath>
					<polygon class="st11" points="580.7,205 557.6,244.7 750,577.9 773.1,538.2 					"/>
				</g>
			</g>
		</g>
	</g>
</g>
<g>
	<g>
		<path class="st12" d="M50.9,720.7v41.2H31c-13.3,0-19.9-6.8-20-20.3c0-5.8,1.9-10.8,5.9-14.9c3.9-4.1,8.6-6.1,14-6H50.9z
			 M25.8,699.7c4.1,0,6.2,2,6.2,6.1s-2,6.2-6.1,6.2c-4,0-6-2-6-6.1C20,701.8,22,699.7,25.8,699.7z M35.2,730.2l-4.2,0.1
			c-6.7,0.1-10.1,3.8-10.1,11v0.5c0,7.1,3.3,10.7,9.9,10.7H41v-22.3H35.2L35.2,730.2z M41.6,699.7c4.1,0,6.2,2,6.2,6.1
			s-2,6.2-6.1,6.2c-4,0-6-2-6-6.1C35.8,701.8,37.7,699.7,41.6,699.7z"/>
	</g>
	<g>
		<path class="st12" d="M79.1,720.9c5.5,0.5,9.2,3.6,11.1,9.3c0.8,2.5,1.2,5.3,1.2,8.4v23.3H56v-9.3h23.9v-15.9
			c0-2.1-0.5-3.8-1.6-4.9c-1.1-1.2-2.7-1.7-4.7-1.7h-8.4V721C73.7,720.8,78.4,720.8,79.1,720.9z"/>
	</g>
	<g>
		<path class="st12" d="M119.6,720.9c5.5,0.5,9.2,3.6,11.1,9.3c0.8,2.5,1.2,5.3,1.2,8.4v13.9h10.8v9.3H96.5v-9.3h23.8v-15.9
			c0-2.1-0.6-3.8-1.6-4.9c-1.1-1.2-2.7-1.7-4.7-1.7h-8.4v-9.1C114.2,720.8,118.9,720.8,119.6,720.9z"/>
	</g>
	<g>
		<path class="st12" d="M151.9,720.8h6.9c4.4,0,7.7,0.2,10.1,0.4c7.9,1.2,13.2,5.5,16,13c1.1,3.2,1.7,8.7,1.7,16.3v2h11.5v9.3h-57.9
			v-9.3H177c0.1-6.1,0-9.7-0.4-11c-1.3-5.1-4.2-8.3-8.9-9.6c-1.2-0.3-2.8-0.5-4.8-0.6c-0.6,0-1.2,0-2.1,0s-1.9,0-3.2-0.1
			c-1.3,0-2.5,0-3.6,0c-1.2,0-1.9,0-2.1-0.1V720.8L151.9,720.8z M164.9,770c4.1,0,6.2,2,6.2,6.1s-2,6.2-6.1,6.2c-4,0-6-2-6-6.1
			C159.1,772.1,161,770.1,164.9,770z"/>
	</g>
	<g>
		<path class="st12" d="M226.5,752.5h11.6v9.3h-42.5v-9.3H215v-31.8h11.5V752.5z M213.1,699.7c4.1,0,6.2,2,6.2,6.1s-2,6.2-6.1,6.2
			c-4,0-6-2-6-6.1C207.3,701.8,209.2,699.7,213.1,699.7z M228.9,699.7c4.1,0,6.2,2,6.2,6.1s-2,6.2-6.1,6.2c-4,0-6-2-6-6.1
			C223.1,701.8,225,699.7,228.9,699.7z"/>
	</g>
	<g>
		<path class="st12" d="M251.1,727.1c3.9-4.2,8.6-6.2,14.1-6.2s10.2,2.1,14.1,6.2c3.9,4.2,5.9,9.2,5.9,15c0,2.1-0.3,4.2-0.9,6.4
			c0.5,2.1,1.9,3.4,4.2,3.8c1.6,0.1,3.7,0.2,6.3,0.2v9.3H290c-3.9,0-7.2-1.4-9.7-4.1l-1-0.7c-3.9,4.2-8.6,6.3-14.2,6.3
			c-5.8,0-10.7-2.3-14.6-6.8l0.4,0.5l-1,0.7c-2.5,2.7-5.7,4.1-9.7,4.1h-4.8v-9.3c4.1,0,6.2-0.1,6.3-0.2c2.3-0.5,3.8-1.9,4.3-4.1
			c-0.6-1.9-0.8-3.9-0.8-6.1C245.3,736.3,247.2,731.3,251.1,727.1z M272.9,742.1c0-8.2-2.5-12.3-7.6-12.3s-7.6,4.1-7.6,12.3
			s2.5,12.3,7.6,12.3S272.9,750.3,272.9,742.1z"/>
	</g>
	<g>
		<path class="st12" d="M315.5,659.2v86.9c0,10.5-5.3,15.7-15.8,15.7h-7.4v-9.3h6.4c1.6,0,2.9-0.5,3.8-1.4s1.4-2.2,1.4-3.8v-88.1
			L315.5,659.2L315.5,659.2z"/>
	</g>
	<g>
		<path class="st12" d="M332,761.8h-11.4V659H332V761.8z"/>
	</g>
	<g>
		<path class="st12" d="M391,720.7v31.8h11.4v9.3H371c-13.3,0-19.9-6.8-20-20.3c0-5.8,1.9-10.8,5.9-14.9c3.9-4.1,8.6-6.1,14-6
			L391,720.7z M365.9,699.7c4.1,0,6.2,2,6.2,6.1s-2,6.2-6.1,6.2c-4,0-6-2-6-6.1C360.1,701.8,362,699.7,365.9,699.7z M375.2,730.2
			l-4.2,0.1c-6.7,0.1-10,3.8-10,11v0.5c0,7.1,3.3,10.7,9.9,10.7h10.2l-0.1-22.3H375.2L375.2,730.2z M381.6,699.7
			c4.1,0,6.2,2,6.2,6.1s-2,6.2-6.1,6.2c-4,0-6-2-6-6.1C375.9,701.8,377.8,699.7,381.6,699.7z"/>
	</g>
	<g>
		<path class="st12" d="M450.1,720.8v41.1h-51.5v-9.3h14.5c-2-3.3-3-6.9-3-10.9c0-5.9,2-10.9,5.9-15c3.9-4,8.5-6,14-6L450.1,720.8z
			 M425.5,699.7c4.1,0,6.2,2,6.2,6.1s-2,6.2-6.1,6.2c-4,0-6-2-6-6.1C419.6,701.8,421.6,699.7,425.5,699.7z M434.3,730.3l-4.2,0.1
			c-6.7,0.1-10,3.8-10,11v0.5c0,7.1,3.3,10.6,9.9,10.6h10.1l0.1-21l-0.1-1.2L434.3,730.3L434.3,730.3z M441.2,699.7
			c4.1,0,6.2,2,6.2,6.1s-2,6.2-6.1,6.2c-4,0-6-2-6-6.1C435.4,701.8,437.4,699.7,441.2,699.7z"/>
	</g>
	<g>
		<path class="st12" d="M466.7,752.5h11.6v9.3h-23.1V659.2h11.5V752.5z"/>
	</g>
	<g>
		<path class="st12" d="M498.7,662.4v62.1c2.4-1.7,5.2-2.7,8.6-3.2c2.7-0.3,6.1-0.5,10.1-0.5h9.5c4.9,0,8.3,0.2,10.1,0.5
			c7.9,1.2,13.2,5.5,15.9,13c1.2,3.3,1.8,8.8,1.8,16.3v1.9h11.4v9.3h-90.5v-9.3h11.5v-90.1H498.7L498.7,662.4z M522.2,731.2
			c-3.5,0-6.5,0-8.9,0.1c-2,0.1-3.6,0.3-4.8,0.6c-4.7,1.4-7.6,4.5-8.9,9.5c-0.3,1.3-0.5,4.9-0.6,11h46.2c-0.1-6.1-0.3-9.7-0.6-11
			c-1.2-5-4.1-8.2-8.8-9.5c-1.2-0.3-2.8-0.5-4.8-0.6C528.7,731.2,525.7,731.2,522.2,731.2z"/>
	</g>
	<g>
		<path class="st12" d="M586.9,752.5h11.6v9.3h-34.8v-9.3h11.7v-93.3h11.5V752.5L586.9,752.5z"/>
	</g>
	<g>
		<path class="st12" d="M619.2,659.2v86.9c0,10.5-5.3,15.7-15.8,15.7H596v-9.3h6.4c1.6,0,2.9-0.5,3.8-1.4c0.9-0.9,1.4-2.2,1.4-3.8
			v-88.1L619.2,659.2L619.2,659.2z"/>
	</g>
</g>
<path class="st7" d="M709.4,663.5c13.8,1.3,23.1,9,27.9,23.3c2,6.3,3,13.3,3,21v58.3h-95v-23.4h66v-39.8c0-5.3-1.3-9.4-4.1-12.3
	c-2.7-2.9-6.7-4.3-11.9-4.3h-21v-22.8C695.9,663.2,707.6,663.2,709.4,663.5z"/>
<path class="st7" d="M781.6,766.1h-28.5V604.5h28.5V766.1z"/>
<path class="st7" d="M852.2,663.5c13.8,1.3,23.1,9,27.9,23.3c2,6.3,3,13.3,3,21v34.9h27.1v23.4H794.3v-23.4h59.8v-39.8
	c0-5.3-1.3-9.4-4.1-12.3c-2.7-2.9-6.7-4.3-11.9-4.3h-21v-22.8C838.7,663.2,850.4,663.2,852.2,663.5z"/>
<path class="st7" d="M939.7,679.1c9.8-10.4,21.6-15.6,35.4-15.6s25.6,5.2,35.4,15.6s14.7,23,14.7,37.6s-4.9,27.2-14.7,37.6
	c-9.8,10.4-21.6,15.6-35.4,15.6c-14.6,0-26.8-5.7-36.7-17l1,1.3l-2.5,1.8c-6.3,6.8-14.3,10.2-24.2,10.2h-12v-23.4
	c6.7,0,12-0.2,15.8-0.5c5.8-1.3,9.4-4.7,10.7-10.2c-1.4-4.8-2.1-9.9-2.1-15.3C925,702,929.9,689.5,939.7,679.1z M994.2,716.7
	c0-20.5-6.4-30.8-19.1-30.8S956,696.2,956,716.7s6.4,30.8,19.1,30.8C987.8,747.5,994.2,737.2,994.2,716.7z"/>
<path class="st7" d="M1052.4,780.9c3.7-1,7.5-0.6,11.5,1.1v8l-1.9-0.2c-3.6-0.3-5.6-0.4-6.1-0.2c-3.1,0.3-4.9,2.1-5.4,5.3l-0.2,3.2
	c0.3,2.8,1.9,4.1,4.6,4.1l13.1,0.2v23.9H11v-24.2h1030.5l-0.5-2.5C1038.6,789.5,1042.4,783.3,1052.4,780.9z M1066.4,766.1h-28.5
	v-159h28.5V766.1z"/>
<polygon class="st7" points="407,576.7 384,536.8 407,496.9 430.5,537.7 "/>
</svg>
