<?xml version="1.0" encoding="utf-8"?>
<!-- Generator: Adobe Illustrator 24.2.1, SVG Export Plug-In . SVG Version: 6.00 Build 0)  -->
<svg version="1.1" id="Layer_1" xmlns="http://www.w3.org/2000/svg" xmlns:xlink="http://www.w3.org/1999/xlink" x="0px" y="0px"
	 viewBox="0 0 1057 622.3" style="enable-background:new 0 0 1057 622.3;" xml:space="preserve">
<style type="text/css">
	.st0{enable-background:new    ;}
	.st1{clip-path:url(#SVGID_2_);}
	.st2{fill:#55FFBC;}
	.st3{clip-path:url(#SVGID_4_);}
	.st4{clip-path:url(#SVGID_6_);}
	.st5{clip-path:url(#SVGID_8_);}
	.st6{fill:none;}
	.st7{fill:#514CCE;}
	.st8{clip-path:url(#SVGID_12_);fill:#55FFBC;}
	.st9{clip-path:url(#SVGID_16_);fill:#55FFBC;}
	.st10{clip-path:url(#SVGID_18_);fill:#55FFBC;}
	.st11{clip-path:url(#SVGID_20_);fill:#55FFBC;}
	.st12{fill:#5193CE;}
</style>
<g>
	<g class="st0">
		<g class="st0">
			<g>
				<g>
					<defs>
						<polygon id="SVGID_1_" points="250.5,39.7 227.4,0 457.2,0.6 480.3,40.4 						"/>
					</defs>
					<clipPath id="SVGID_2_">
						<use xlink:href="#SVGID_1_"  style="overflow:visible;"/>
					</clipPath>
					<g class="st1">
						<path class="st2" d="M241.3,8l211.2,0.6l13.8,23.7l-211.2-0.6L241.3,8 M227.4,0l23.1,39.7l229.8,0.6L457.2,0.6L227.4,0
							L227.4,0z"/>
					</g>
				</g>
			</g>
		</g>
		<g class="st0">
			<g>
				<g>
					<defs>
						<polygon id="SVGID_3_" points="480.3,40.4 287.9,373.6 264.8,333.8 457.2,0.6 						"/>
					</defs>
					<clipPath id="SVGID_4_">
						<use xlink:href="#SVGID_3_"  style="overflow:visible;"/>
					</clipPath>
					<g class="st3">
						<path class="st2" d="M457.2,16.6L471,40.4L287.9,357.6l-13.8-23.8L457.2,16.6 M457.2,0.6L264.8,333.8l23.1,39.7L480.3,40.3
							L457.2,0.6L457.2,0.6z"/>
					</g>
				</g>
			</g>
		</g>
		<g class="st0">
			<g>
				<g>
					<defs>
						<polygon id="SVGID_5_" points="287.9,373.6 58.1,372.9 35,333.2 264.8,333.8 						"/>
					</defs>
					<clipPath id="SVGID_6_">
						<use xlink:href="#SVGID_5_"  style="overflow:visible;"/>
					</clipPath>
					<g class="st4">
						<path class="st2" d="M49,341.2l211.2,0.6l13.8,23.7l-211.2-0.6L49,341.2 M35,333.2l23.1,39.7l229.8,0.7l-23.1-39.7L35,333.2
							L35,333.2z"/>
					</g>
				</g>
			</g>
		</g>
		<g class="st0">
			<g>
				<g>
					<defs>
						<polygon id="SVGID_7_" points="58.1,372.9 35,333.2 227.4,0 250.5,39.7 						"/>
					</defs>
					<clipPath id="SVGID_8_">
						<use xlink:href="#SVGID_7_"  style="overflow:visible;"/>
					</clipPath>
					<g class="st5">
						<path class="st2" d="M227.4,16l13.8,23.8L58.1,357l-13.8-23.8L227.4,16 M227.4,0L35,333.2l23.1,39.7L250.5,39.7L227.4,0
							L227.4,0z"/>
					</g>
				</g>
			</g>
		</g>
	</g>
</g>
<g>
	<polygon class="st6" points="771.8,40.6 588,40.1 534.1,133.5 626.1,292.9 	"/>
	<polygon class="st6" points="433.9,39.7 250.1,40.2 396,292.9 488,133.5 	"/>
	<polygon class="st6" points="581.3,9.8 593.4,30.7 777.3,31.2 789.3,10.4 	"/>
	<polygon class="st6" points="511.1,173.3 419,332.8 419.5,333.7 453.5,333.7 602.8,333.3 603.1,332.8 	"/>
	<polygon class="st6" points="577.2,40.1 565,19.1 516.5,103 528.7,124.1 	"/>
	<polygon class="st6" points="631.6,302.3 643.7,323.4 806.9,40.7 806.9,40.7 782.7,40.6 	"/>
	<polygon class="st6" points="788.1,31.2 801.4,31.3 794.7,19.7 	"/>
	<polygon class="st6" points="505.6,163.9 493.5,142.9 401.4,302.3 413.6,323.4 	"/>
	<polygon class="st2" points="782.7,40.6 806.9,40.7 801.4,31.3 788.1,31.2 	"/>
	<polygon class="st2" points="771.8,40.6 777.3,31.2 593.4,30.7 581.3,9.8 789.3,10.4 794.7,1 564.9,0.3 588,40.1 	"/>
	<polygon class="st2" points="794.7,19.7 801.4,31.3 801.4,31.3 789.3,10.4 789.3,10.4 777.3,31.2 788.1,31.2 	"/>
	<polygon class="st2" points="631.6,302.3 782.7,40.6 771.8,40.6 626.1,292.9 	"/>
	<polygon class="st2" points="602.8,333.3 603.4,333.3 603.1,332.8 	"/>
	<polygon class="st2" points="806.9,40.7 643.7,323.4 649.2,332.8 817.8,40.7 	"/>
	<polygon class="st2" points="625.4,373.9 626,372.9 624.9,372.9 	"/>
	<polygon class="st2" points="788.1,31.2 777.3,31.2 771.8,40.6 782.7,40.6 	"/>
	<polygon class="st2" points="789.3,10.4 801.4,31.3 801.4,31.3 806.9,40.7 817.8,40.7 794.7,1 	"/>
	<polygon class="st2" points="419.6,333.8 453.5,333.7 419.5,333.7 	"/>
	<polygon class="st2" points="395.6,373.2 396.3,373.2 396,372.7 	"/>
	<polygon class="st2" points="453.5,373.4 625.4,373.9 624.9,372.9 	"/>
	<polygon class="st2" points="419,332.8 511.1,173.3 505.6,163.9 413.6,323.4 	"/>
	<polygon class="st2" points="516.5,103 565,19.1 577.2,40.1 528.7,124.1 534.1,133.5 588,40.1 564.9,0.3 511.1,93.6 	"/>
	<line class="st6" x1="373.4" y1="333.5" x2="373" y2="332.8"/>
	<polygon class="st2" points="488,133.5 396,292.9 401.4,302.3 493.5,142.9 	"/>
	<g>
		<polygon class="st7" points="396.5,373.6 453.5,373.4 396.7,373.2 		"/>
	</g>
	<g>
		<polygon class="st7" points="609.1,364.5 596.9,343.5 414.3,343 402.1,363.9 		"/>
	</g>
	<g>
		<polygon class="st7" points="602.3,334.2 602.8,333.3 453.5,333.7 		"/>
	</g>
	<g>
		<polygon class="st7" points="626,372.9 626.3,372.9 626.1,372.7 		"/>
	</g>
	<g>
		<polygon class="st7" points="603.4,333.3 602.8,333.3 602.3,334.2 624.9,372.9 626,372.9 626.1,372.7 		"/>
	</g>
	<g>
		<polygon class="st7" points="602.3,334.2 453.5,333.7 419.6,333.8 414.3,343 596.9,343.5 609.1,364.5 402.1,363.9 396.7,373.2 
			453.5,373.4 624.9,372.9 		"/>
	</g>
	<g>
		<polygon class="st7" points="603.1,332.8 626.1,292.9 534.1,133.5 511.1,173.3 		"/>
	</g>
	<g>
		<polygon class="st7" points="488,133.5 511.1,93.6 457,0 433.9,39.7 		"/>
	</g>
	<g>
		<polygon class="st7" points="613.7,333.3 638.1,333.2 643.7,323.4 631.6,302.3 		"/>
	</g>
	<g>
		<polygon class="st7" points="511.1,173.3 534.1,133.5 511.1,93.6 488,133.5 		"/>
	</g>
	<g>
		<polygon class="st7" points="649.4,333.2 649.2,332.8 648.9,333.2 		"/>
	</g>
	<g>
		<polygon class="st7" points="638.1,333.2 648.9,333.2 649.2,332.8 643.7,323.4 		"/>
	</g>
	<g>
		<polygon class="st7" points="631.6,302.3 626.1,292.9 603.1,332.8 603.4,333.3 613.7,333.3 		"/>
	</g>
	<g>
		<polygon class="st7" points="626.1,372.7 626.3,372.9 649.4,333.2 648.9,333.2 		"/>
	</g>
	<g>
		<polygon class="st7" points="613.2,334.2 625.4,355.2 638.1,333.2 613.7,333.3 		"/>
	</g>
	<g>
		<polygon class="st7" points="613.2,334.2 613.7,333.3 603.4,333.3 626.1,372.7 648.9,333.2 638.1,333.2 625.4,355.2 		"/>
	</g>
	<g>
		<polygon class="st7" points="433.9,39.7 457,0 227.2,0.6 250.1,40.2 		"/>
	</g>
	<g>
		<polygon class="st7" points="392.5,349.2 395.6,354.5 402.3,343 388.9,343 		"/>
	</g>
	<g>
		<polygon class="st7" points="419.5,333.7 419,332.8 418.5,333.7 		"/>
	</g>
	<g>
		<polygon class="st7" points="413.6,323.4 401.4,302.3 383.4,333.5 383.4,333.5 407.7,333.6 		"/>
	</g>
	<g>
		<polygon class="st7" points="250.1,40.2 204.1,40.4 373,332.8 396,292.9 		"/>
	</g>
	<g>
		<polygon class="st7" points="396.3,373.2 396.5,373.6 396.7,373.2 		"/>
	</g>
	<g>
		<polygon class="st7" points="401.1,363.9 401.1,363.9 402.1,363.9 414.3,343 413.1,343 		"/>
	</g>
	<g>
		<polygon class="st7" points="388.9,343 402.3,343 407.7,333.6 383.4,333.5 392.5,349.2 		"/>
	</g>
	<g>
		<polygon class="st7" points="402.1,363.9 401.1,363.9 401.1,363.9 396,372.7 396.3,373.2 396.7,373.2 		"/>
	</g>
	<g>
		<polygon class="st7" points="418.5,333.7 413.1,343 414.3,343 419.6,333.8 419.5,333.7 		"/>
	</g>
	<g>
		<path class="st7" d="M402.3,343"/>
	</g>
	<g>
		<polygon class="st7" points="227.2,0.6 204.1,40.4 250.1,40.2 		"/>
	</g>
</g>
<g>
	<g class="st0">
		<g class="st0">
			<line class="st6" x1="923.1" y1="232.3" x2="883.4" y2="209.2"/>
		</g>
	</g>
</g>
<g>
	<g class="st0">
		<g class="st0">
			<g>
				<polygon id="SVGID_9_" class="st2" points="762.1,334.2 739,373.9 968.8,373.2 991.9,333.5 				"/>
			</g>
			<g>
				<g>
					<defs>
						<polygon id="SVGID_10_" points="762.1,334.2 739,373.9 968.8,373.2 991.9,333.5 						"/>
					</defs>
					<clipPath id="SVGID_12_">
						<use xlink:href="#SVGID_10_"  style="overflow:visible;"/>
					</clipPath>
					<polygon class="st8" points="762.1,334.2 739,373.9 968.8,373.2 991.9,333.5 					"/>
				</g>
			</g>
		</g>
		<g class="st0">
			<g>
				<polygon id="SVGID_11_" class="st2" points="991.9,333.5 799.5,0.3 776.4,40.1 968.8,373.2 				"/>
			</g>
			<g>
				<g>
					<defs>
						<polygon id="SVGID_14_" points="991.9,333.5 799.5,0.3 776.4,40.1 968.8,373.2 						"/>
					</defs>
					<clipPath id="SVGID_16_">
						<use xlink:href="#SVGID_14_"  style="overflow:visible;"/>
					</clipPath>
					<polygon class="st9" points="991.9,333.5 799.5,0.3 776.4,40.1 968.8,373.2 					"/>
				</g>
			</g>
		</g>
		<g class="st0">
			<g>
				<polygon id="SVGID_13_" class="st2" points="799.5,0.3 569.7,1 546.6,40.7 776.4,40.1 				"/>
			</g>
			<g>
				<g>
					<defs>
						<polygon id="SVGID_17_" points="799.5,0.3 569.7,1 546.6,40.7 776.4,40.1 						"/>
					</defs>
					<clipPath id="SVGID_18_">
						<use xlink:href="#SVGID_17_"  style="overflow:visible;"/>
					</clipPath>
					<polygon class="st10" points="799.5,0.3 569.7,1 546.6,40.7 776.4,40.1 					"/>
				</g>
			</g>
		</g>
		<g class="st0">
			<g>
				<polygon id="SVGID_15_" class="st2" points="569.7,1 546.6,40.7 739,373.9 762.1,334.2 				"/>
			</g>
			<g>
				<g>
					<defs>
						<polygon id="SVGID_19_" points="569.7,1 546.6,40.7 739,373.9 762.1,334.2 						"/>
					</defs>
					<clipPath id="SVGID_20_">
						<use xlink:href="#SVGID_19_"  style="overflow:visible;"/>
					</clipPath>
					<polygon class="st11" points="569.7,1 546.6,40.7 739,373.9 762.1,334.2 					"/>
				</g>
			</g>
		</g>
	</g>
</g>
<g>
	<g>
		<path class="st12" d="M39.9,516.7v41.2H20c-13.3,0-19.9-6.8-20-20.3c0-5.8,1.9-10.8,5.9-14.9c3.9-4.1,8.6-6.1,14-6H39.9z
			 M14.8,495.7c4.1,0,6.2,2,6.2,6.1s-2,6.2-6.1,6.2c-4,0-6-2-6-6.1C9,497.8,11,495.7,14.8,495.7z M24.2,526.2l-4.2,0.1
			c-6.7,0.1-10.1,3.8-10.1,11v0.5c0,7.1,3.3,10.7,9.9,10.7H30v-22.3H24.2L24.2,526.2z M30.6,495.7c4.1,0,6.2,2,6.2,6.1
			s-2,6.2-6.1,6.2c-4,0-6-2-6-6.1C24.8,497.8,26.7,495.7,30.6,495.7z"/>
	</g>
	<g>
		<path class="st12" d="M68.1,516.9c5.5,0.5,9.2,3.6,11.1,9.3c0.8,2.5,1.2,5.3,1.2,8.4v23.3H45v-9.3h23.9v-15.9
			c0-2.1-0.5-3.8-1.6-4.9c-1.1-1.2-2.7-1.7-4.7-1.7h-8.4V517C62.7,516.8,67.4,516.8,68.1,516.9z"/>
	</g>
	<g>
		<path class="st12" d="M108.6,516.9c5.5,0.5,9.2,3.6,11.1,9.3c0.8,2.5,1.2,5.3,1.2,8.4v13.9h10.8v9.3H85.5v-9.3h23.8v-15.9
			c0-2.1-0.6-3.8-1.6-4.9c-1.1-1.2-2.7-1.7-4.7-1.7h-8.4v-9.1C103.2,516.8,107.9,516.8,108.6,516.9z"/>
	</g>
	<g>
		<path class="st12" d="M140.9,516.8h6.9c4.4,0,7.7,0.2,10.1,0.4c7.9,1.2,13.2,5.5,16,13c1.1,3.2,1.7,8.7,1.7,16.3v2h11.5v9.3h-57.9
			v-9.3H166c0.1-6.1,0-9.7-0.4-11c-1.3-5.1-4.2-8.3-8.9-9.6c-1.2-0.3-2.8-0.5-4.8-0.6c-0.6,0-1.2,0-2.1,0s-1.9,0-3.2-0.1
			c-1.3,0-2.5,0-3.6,0c-1.2,0-1.9,0-2.1-0.1V516.8L140.9,516.8z M153.9,566c4.1,0,6.2,2,6.2,6.1s-2,6.2-6.1,6.2c-4,0-6-2-6-6.1
			C148.1,568.1,150,566.1,153.9,566z"/>
	</g>
	<g>
		<path class="st12" d="M215.5,548.5h11.6v9.3h-42.5v-9.3H204v-31.8h11.5V548.5z M202.1,495.7c4.1,0,6.2,2,6.2,6.1s-2,6.2-6.1,6.2
			c-4,0-6-2-6-6.1C196.3,497.8,198.2,495.7,202.1,495.7z M217.9,495.7c4.1,0,6.2,2,6.2,6.1s-2,6.2-6.1,6.2c-4,0-6-2-6-6.1
			C212.1,497.8,214,495.7,217.9,495.7z"/>
	</g>
	<g>
		<path class="st12" d="M240.1,523.1c3.9-4.2,8.6-6.2,14.1-6.2s10.2,2.1,14.1,6.2c3.9,4.2,5.9,9.2,5.9,15c0,2.1-0.3,4.2-0.9,6.4
			c0.5,2.1,1.9,3.4,4.2,3.8c1.6,0.1,3.7,0.2,6.3,0.2v9.3H279c-3.9,0-7.2-1.4-9.7-4.1l-1-0.7c-3.9,4.2-8.6,6.3-14.2,6.3
			c-5.8,0-10.7-2.3-14.6-6.8l0.4,0.5l-1,0.7c-2.5,2.7-5.7,4.1-9.7,4.1h-4.8v-9.3c4.1,0,6.2-0.1,6.3-0.2c2.3-0.5,3.8-1.9,4.3-4.1
			c-0.6-1.9-0.8-3.9-0.8-6.1C234.3,532.3,236.2,527.3,240.1,523.1z M261.9,538.1c0-8.2-2.5-12.3-7.6-12.3s-7.6,4.1-7.6,12.3
			s2.5,12.3,7.6,12.3S261.9,546.3,261.9,538.1z"/>
	</g>
	<g>
		<path class="st12" d="M304.5,455.2v86.9c0,10.5-5.3,15.7-15.8,15.7h-7.4v-9.3h6.4c1.6,0,2.9-0.5,3.8-1.4s1.4-2.2,1.4-3.8v-88.1
			L304.5,455.2L304.5,455.2z"/>
	</g>
	<g>
		<path class="st12" d="M321,557.8h-11.4V455H321V557.8z"/>
	</g>
	<g>
		<path class="st12" d="M380,516.7v31.8h11.4v9.3H360c-13.3,0-19.9-6.8-20-20.3c0-5.8,1.9-10.8,5.9-14.9c3.9-4.1,8.6-6.1,14-6
			L380,516.7z M354.9,495.7c4.1,0,6.2,2,6.2,6.1s-2,6.2-6.1,6.2c-4,0-6-2-6-6.1C349.1,497.8,351,495.7,354.9,495.7z M364.2,526.2
			l-4.2,0.1c-6.7,0.1-10,3.8-10,11v0.5c0,7.1,3.3,10.7,9.9,10.7h10.2l-0.1-22.3H364.2L364.2,526.2z M370.6,495.7
			c4.1,0,6.2,2,6.2,6.1s-2,6.2-6.1,6.2c-4,0-6-2-6-6.1C364.9,497.8,366.8,495.7,370.6,495.7z"/>
	</g>
	<g>
		<path class="st12" d="M439.1,516.8v41.1h-51.5v-9.3h14.5c-2-3.3-3-6.9-3-10.9c0-5.9,2-10.9,5.9-15c3.9-4,8.5-6,14-6L439.1,516.8z
			 M414.5,495.7c4.1,0,6.2,2,6.2,6.1s-2,6.2-6.1,6.2c-4,0-6-2-6-6.1C408.6,497.8,410.6,495.7,414.5,495.7z M423.3,526.3l-4.2,0.1
			c-6.7,0.1-10,3.8-10,11v0.5c0,7.1,3.3,10.6,9.9,10.6h10.1l0.1-21l-0.1-1.2L423.3,526.3L423.3,526.3z M430.2,495.7
			c4.1,0,6.2,2,6.2,6.1s-2,6.2-6.1,6.2c-4,0-6-2-6-6.1C424.4,497.8,426.4,495.7,430.2,495.7z"/>
	</g>
	<g>
		<path class="st12" d="M455.7,548.5h11.6v9.3h-23.1V455.2h11.5V548.5z"/>
	</g>
	<g>
		<path class="st12" d="M487.7,458.4v62.1c2.4-1.7,5.2-2.7,8.6-3.2c2.7-0.3,6.1-0.5,10.1-0.5h9.5c4.9,0,8.3,0.2,10.1,0.5
			c7.9,1.2,13.2,5.5,15.9,13c1.2,3.3,1.8,8.8,1.8,16.3v1.9h11.4v9.3h-90.5v-9.3h11.5v-90.1H487.7L487.7,458.4z M511.2,527.2
			c-3.5,0-6.5,0-8.9,0.1c-2,0.1-3.6,0.3-4.8,0.6c-4.7,1.4-7.6,4.5-8.9,9.5c-0.3,1.3-0.5,4.9-0.6,11h46.2c-0.1-6.1-0.3-9.7-0.6-11
			c-1.2-5-4.1-8.2-8.8-9.5c-1.2-0.3-2.8-0.5-4.8-0.6C517.7,527.2,514.7,527.2,511.2,527.2z"/>
	</g>
	<g>
		<path class="st12" d="M575.9,548.5h11.6v9.3h-34.8v-9.3h11.7v-93.3h11.5V548.5L575.9,548.5z"/>
	</g>
	<g>
		<path class="st12" d="M608.2,455.2v86.9c0,10.5-5.3,15.7-15.8,15.7H585v-9.3h6.4c1.6,0,2.9-0.5,3.8-1.4c0.9-0.9,1.4-2.2,1.4-3.8
			v-88.1L608.2,455.2L608.2,455.2z"/>
	</g>
</g>
<path class="st7" d="M698.4,459.5c13.8,1.3,23.1,9,27.9,23.3c2,6.3,3,13.3,3,21v58.3h-95v-23.4h66v-39.8c0-5.3-1.3-9.4-4.1-12.3
	c-2.7-2.9-6.7-4.3-11.9-4.3h-21v-22.8C684.9,459.2,696.6,459.2,698.4,459.5z"/>
<path class="st7" d="M770.6,562.1h-28.5V400.5h28.5V562.1z"/>
<path class="st7" d="M841.2,459.5c13.8,1.3,23.1,9,27.9,23.3c2,6.3,3,13.3,3,21v34.9h27.1v23.4H783.3v-23.4h59.8v-39.8
	c0-5.3-1.3-9.4-4.1-12.3c-2.7-2.9-6.7-4.3-11.9-4.3h-21v-22.8C827.7,459.2,839.4,459.2,841.2,459.5z"/>
<path class="st7" d="M928.7,475.1c9.8-10.4,21.6-15.6,35.4-15.6s25.6,5.2,35.4,15.6s14.7,23,14.7,37.6s-4.9,27.2-14.7,37.6
	c-9.8,10.4-21.6,15.6-35.4,15.6c-14.6,0-26.8-5.7-36.7-17l1,1.3l-2.5,1.8c-6.3,6.8-14.3,10.2-24.2,10.2h-12v-23.4
	c6.7,0,12-0.2,15.8-0.5c5.8-1.3,9.4-4.7,10.7-10.2c-1.4-4.8-2.1-9.9-2.1-15.3C914,498,918.9,485.5,928.7,475.1z M983.2,512.7
	c0-20.5-6.4-30.8-19.1-30.8S945,492.2,945,512.7s6.4,30.8,19.1,30.8C976.8,543.5,983.2,533.2,983.2,512.7z"/>
<path class="st7" d="M1041.4,576.9c3.7-1,7.5-0.6,11.5,1.1v8l-1.9-0.2c-3.6-0.3-5.6-0.4-6.1-0.2c-3.1,0.3-4.9,2.1-5.4,5.3l-0.2,3.2
	c0.3,2.8,1.9,4.1,4.6,4.1l13.1,0.2v23.9H0v-24.2h1030.5l-0.5-2.5C1027.6,585.5,1031.4,579.3,1041.4,576.9z M1055.4,562.1h-28.5v-159
	h28.5V562.1z"/>
<polygon class="st7" points="396,372.7 373,332.8 396,292.9 419.5,333.7 "/>
</svg>
