<?xml version="1.0" encoding="utf-8"?>
<!-- Generator: Adobe Illustrator 24.2.1, SVG Export Plug-In . SVG Version: 6.00 Build 0)  -->
<svg version="1.1" id="Layer_1" xmlns="http://www.w3.org/2000/svg" xmlns:xlink="http://www.w3.org/1999/xlink" x="0px" y="0px"
	 viewBox="0 0 498 194.6" style="enable-background:new 0 0 498 194.6;" xml:space="preserve">
<style type="text/css">
	.st0{enable-background:new    ;}
	.st1{clip-path:url(#SVGID_2_);}
	.st2{clip-path:url(#SVGID_4_);}
	.st3{clip-path:url(#SVGID_6_);}
	.st4{clip-path:url(#SVGID_8_);}
	.st5{fill:none;}
	.st6{fill:#55FFBC;}
	.st7{fill:#514CCE;}
	.st8{clip-path:url(#SVGID_10_);}
	.st9{clip-path:url(#SVGID_12_);}
	.st10{clip-path:url(#SVGID_14_);}
	.st11{clip-path:url(#SVGID_16_);}
</style>
<g>
	<g class="st0">
		<g class="st0">
			<defs>
				<polygon id="SVGID_1_" class="st0" points="112.1,20.7 100.1,0 219.7,0.3 231.7,21 				"/>
			</defs>
			<clipPath id="SVGID_2_">
				<use xlink:href="#SVGID_1_"  style="overflow:visible;"/>
			</clipPath>
			<g class="st1">
				<path d="M108.8,5l108,0.3L223,16l-108-0.3L108.8,5 M100.1,0l12,20.7L231.7,21l-12-20.7L100.1,0L100.1,0z"/>
			</g>
		</g>
		<g class="st0">
			<defs>
				<polygon id="SVGID_3_" class="st0" points="231.7,21 131.6,194.4 119.6,173.8 219.7,0.3 				"/>
			</defs>
			<clipPath id="SVGID_4_">
				<use xlink:href="#SVGID_3_"  style="overflow:visible;"/>
			</clipPath>
			<g class="st2">
				<path d="M219.7,10.3L226,21l-94.4,163.4l-6.2-10.7L219.7,10.3 M219.7,0.3L119.6,173.8l12,20.7L231.7,21L219.7,0.3L219.7,0.3z"/>
			</g>
		</g>
		<g class="st0">
			<defs>
				<polygon id="SVGID_5_" class="st0" points="131.6,194.4 12,194.1 0,173.4 119.6,173.8 				"/>
			</defs>
			<clipPath id="SVGID_6_">
				<use xlink:href="#SVGID_5_"  style="overflow:visible;"/>
			</clipPath>
			<g class="st3">
				<path d="M8.7,178.4l108,0.3l6.2,10.7l-108-0.3L8.7,178.4 M0,173.4l12,20.7l119.6,0.3l-12-20.7L0,173.4L0,173.4z"/>
			</g>
		</g>
		<g class="st0">
			<defs>
				<polygon id="SVGID_7_" class="st0" points="12,194.1 0,173.4 100.1,0 112.1,20.7 				"/>
			</defs>
			<clipPath id="SVGID_8_">
				<use xlink:href="#SVGID_7_"  style="overflow:visible;"/>
			</clipPath>
			<g class="st4">
				<path d="M100.1,10l6.2,10.7L12,184.1l-6.2-10.7L100.1,10 M100.1,0L0,173.4l12,20.7L112.1,20.7L100.1,0L100.1,0z"/>
			</g>
		</g>
	</g>
</g>
<g>
	<polygon class="st5" points="383.5,21.1 287.8,20.8 259.7,69.5 307.6,152.5 	"/>
	<polygon class="st5" points="207.6,20.7 111.9,20.9 187.9,152.5 235.8,69.5 	"/>
	<polygon class="st5" points="284.3,5.1 290.6,16 386.3,16.2 392.6,5.4 	"/>
	<polygon class="st5" points="282.1,20.9 275.8,9.9 250.6,53.6 256.9,64.6 	"/>
	<polygon class="st5" points="310.5,157.4 316.8,168.3 401.7,21.2 401.7,21.2 389.1,21.1 	"/>
	<polygon class="st5" points="391.9,16.3 398.9,16.3 395.4,10.3 	"/>
	<polygon class="st5" points="244.9,85.3 238.6,74.4 190.7,157.4 197,168.3 	"/>
	<polygon class="st6" points="389.1,21.1 401.7,21.2 398.9,16.3 391.9,16.3 	"/>
	<polygon points="383.5,21.1 386.3,16.2 290.6,16 284.3,5.1 392.6,5.4 395.4,0.5 275.8,0.2 287.8,20.8 	"/>
	<polygon class="st6" points="395.4,10.3 398.9,16.3 398.9,16.3 392.6,5.4 392.6,5.4 386.3,16.2 391.9,16.3 	"/>
	<polygon points="310.5,157.4 389.1,21.1 383.5,21.1 307.6,152.5 	"/>
	<polygon class="st6" points="295.5,173.5 295.8,173.5 295.7,173.2 	"/>
	<polygon points="401.7,21.2 316.8,168.3 319.6,173.2 407.4,21.2 401.7,21.2 	"/>
	<polygon class="st6" points="307.3,194.6 307.6,194.1 307,194.1 	"/>
	<polygon class="st6" points="391.9,16.3 386.3,16.2 383.5,21.1 389.1,21.1 	"/>
	<polygon class="st6" points="392.6,5.4 398.9,16.3 398.9,16.3 401.7,21.2 407.4,21.2 395.4,0.5 392.6,5.4 	"/>
	<g>
		<polygon points="217.8,194.3 307.3,194.6 307,194.1 		"/>
	</g>
	<polygon points="199.8,173.2 247.8,90.2 244.9,85.3 197,168.3 	"/>
	<polygon points="250.6,53.6 275.8,9.9 282.1,20.9 256.9,64.6 259.7,69.5 287.8,20.8 275.8,0.2 247.8,48.7 	"/>
	<polygon class="st6" points="175.9,173.2 175.7,173.6 176.1,173.6 	"/>
	<polygon points="235.8,69.5 187.9,152.5 190.7,157.4 238.6,74.4 	"/>
	<g>
		<polygon points="295.3,173.9 295.5,173.5 217.8,173.7 		"/>
	</g>
	<g>
		<polygon class="st7" points="307.6,194.1 307.7,194.1 307.6,194 		"/>
	</g>
	<g>
		<polygon points="295.8,173.5 295.5,173.5 295.3,173.9 307,194.1 307.6,194.1 307.6,194 		"/>
	</g>
	<g>
		<polygon points="295.7,173.2 307.6,152.5 259.7,69.5 247.8,90.2 		"/>
	</g>
	<g>
		<polygon points="235.8,69.5 247.8,48.7 219.6,0 207.6,20.7 		"/>
	</g>
	<g>
		<polygon points="301.2,173.5 313.8,173.4 316.8,168.3 310.5,157.4 		"/>
	</g>
	<g>
		<polygon points="244.9,85.3 256.9,64.6 250.6,53.6 238.6,74.4 		"/>
	</g>
	<g>
		<polygon class="st7" points="319.7,173.4 319.6,173.2 319.5,173.4 		"/>
	</g>
	<polygon points="313.8,173.4 319.5,173.4 319.6,173.2 316.8,168.3 	"/>
	<g>
		<polygon points="307.6,194 307.7,194.1 319.7,173.4 319.5,173.4 		"/>
	</g>
	<g>
		<polygon points="300.9,173.9 307.3,184.8 313.8,173.4 301.2,173.5 		"/>
	</g>
	<polygon points="300.9,173.9 301.2,173.5 295.8,173.5 307.6,194 319.5,173.4 313.8,173.4 307.3,184.8 	"/>
	<g>
		<polygon points="207.6,20.7 219.6,0 100,0.3 111.9,20.9 		"/>
	</g>
	<g>
		<polygon points="186.1,181.8 187.7,184.5 191.1,178.5 184.2,178.5 		"/>
	</g>
	<g>
		<polygon points="197,168.3 190.7,157.4 181.3,173.6 181.3,173.6 193.9,173.6 		"/>
	</g>
	<g>
		<polygon points="111.9,20.9 88,21 175.9,173.2 187.9,152.5 		"/>
	</g>
	<g>
		<polygon points="184.2,178.5 191.1,178.5 193.9,173.6 181.3,173.6 186.1,181.8 		"/>
	</g>
	<g>
		<polyline points="200.1,173.8 200.1,173.7 199.8,173.2 199.6,173.7 196.8,178.5 190.5,189.4 187.9,194 188,194.3 188.1,194.4 
			217.8,194.3 307,194.1 295.3,173.9 217.8,173.7 		"/>
	</g>
	<g>
		<path class="st7" d="M191.1,178.5"/>
	</g>
	<polygon points="100,0.3 88,21 111.9,20.9 	"/>
</g>
<g>
	<g class="st0">
		<g class="st0">
			<defs>
				<polygon id="SVGID_9_" class="st0" points="378.4,173.9 366.4,194.6 486,194.3 498,173.6 				"/>
			</defs>
			<use xlink:href="#SVGID_9_"  style="overflow:visible;fill:#55FFBC;"/>
			<clipPath id="SVGID_10_">
				<use xlink:href="#SVGID_9_"  style="overflow:visible;"/>
			</clipPath>
			<polygon class="st8" points="378.4,173.9 366.4,194.6 486,194.3 498,173.6 			"/>
		</g>
		<g class="st0">
			<defs>
				<polygon id="SVGID_11_" class="st0" points="498,173.6 397.9,0.2 385.9,20.8 486,194.3 				"/>
			</defs>
			<use xlink:href="#SVGID_11_"  style="overflow:visible;fill:#55FFBC;"/>
			<clipPath id="SVGID_12_">
				<use xlink:href="#SVGID_11_"  style="overflow:visible;"/>
			</clipPath>
			<polygon class="st9" points="498,173.6 397.9,0.2 385.9,20.8 486,194.3 			"/>
		</g>
		<g class="st0">
			<defs>
				<polygon id="SVGID_13_" class="st0" points="397.9,0.2 278.3,0.5 266.3,21.2 385.9,20.8 				"/>
			</defs>
			<use xlink:href="#SVGID_13_"  style="overflow:visible;fill:#55FFBC;"/>
			<clipPath id="SVGID_14_">
				<use xlink:href="#SVGID_13_"  style="overflow:visible;"/>
			</clipPath>
			<g class="st10">
				<polygon points="397.9,0.2 278.3,0.5 266.3,21.2 385.9,20.8 				"/>
			</g>
		</g>
		<g class="st0">
			<defs>
				<polygon id="SVGID_15_" class="st0" points="278.3,0.5 266.3,21.2 366.4,194.6 378.4,173.9 				"/>
			</defs>
			<use xlink:href="#SVGID_15_"  style="overflow:visible;fill:#55FFBC;"/>
			<clipPath id="SVGID_16_">
				<use xlink:href="#SVGID_15_"  style="overflow:visible;"/>
			</clipPath>
			<polygon class="st11" points="278.3,0.5 266.3,21.2 366.4,194.6 378.4,173.9 			"/>
		</g>
	</g>
</g>
</svg>
