<svg id="Capa_1" enable-background="new 0 0 511.988 511.988" height="512" viewBox="0 0 511.988 511.988" width="512" xmlns="http://www.w3.org/2000/svg"><g><g><path d="m341.29 307.418c25.893-20.882 42.462-52.861 42.462-88.716 0-78.224-77.171-133.12-150.965-107.754l-61.492 50.564c-27.941 48.038-17.188 110.203 27.082 145.906z" fill="#a5dbff"/><g fill="#fff398"><path d="m423.695 307.418h-19.277l-30.244 84.683h49.521c9.398 0 17.016-7.618 17.016-17.016v-50.651c0-9.397-7.618-17.016-17.016-17.016z"/><path d="m308.646 307.418-30.244 84.683h48.39l30.244-84.683c-9.295 0-38.892 0-48.39 0z"/><path d="m165.491 307.418h-49.521c-9.398 0-17.016 7.618-17.016 17.016v50.651c0 9.398 7.618 17.016 17.016 17.016h19.277z"/><path d="m261.264 307.418h-48.39l-30.244 84.683h48.39z"/></g><path d="m212.874 307.418c-14.57 0-32.15 0-47.382 0l-30.244 84.683h47.382z" fill="#9bbecf"/><path d="m308.646 307.418h-47.382l-30.244 84.683h47.382z" fill="#9bbecf"/><path d="m404.418 307.418h-47.382l-30.244 84.683h47.382z" fill="#9bbecf"/><path d="m134.239 392.101v109.886h41.333v-109.886c-18.854 0-32.318 0-41.333 0z" fill="#fff7ba"/><path d="m364.093 392.101v109.886h41.333v-109.886c-13.79 0-27.548 0-41.333 0z" fill="#fff7ba"/></g><g><path d="m273.481 53.913-30.656-37.281c-6.387-7.767-17.861-8.886-25.628-2.499l-139.289 114.534c-7.767 6.387-8.886 17.861-2.499 25.628l30.656 37.281c6.387 7.767 17.861 8.886 25.628 2.499l39.602-32.564c4.804-3.95 90.058-74.053 99.688-81.971 7.766-6.385 8.885-17.859 2.498-25.627zm-125.396 94.365c-2.081 1.711-3.742 2.205-4.982 1.481l-12.083-6.919 4.454 13.192c.47 1.357-.354 2.908-2.473 4.649-1.85 1.521-3.415 1.935-4.694 1.243-27.713-15.314-27.753-15.02-28.482-15.907-2.331-2.834 3.121-11.253 6.574-9.087l17.214 10.45-6.519-15.467c-.604-1.441-.096-2.826 1.522-4.157s3.076-1.561 4.373-.69l13.916 9.384-6.927-18.908c-1.59-4.135 9.716-8.339 10.895-3.243l9.395 29.568c.432 1.389-.296 2.86-2.183 4.411zm43.46-35.736c-2.081 1.711-3.742 2.205-4.982 1.481l-12.082-6.919 4.454 13.192c.47 1.357-.354 2.907-2.473 4.649-1.85 1.521-3.415 1.935-4.694 1.243-27.746-15.332-27.749-15.014-28.481-15.908-2.334-2.834 3.121-11.253 6.573-9.087l17.214 10.45-6.519-15.467c-.604-1.441-.096-2.826 1.522-4.157 1.618-1.33 3.076-1.561 4.373-.69l13.916 9.384-6.927-18.909c-1.465-3.808 7.786-7.493 10.223-4.531.718.874-.332-1.708 10.067 30.856.431 1.39-.297 2.862-2.184 4.413zm43.46-35.735c-2.081 1.711-3.743 2.205-4.982 1.481l-12.083-6.919 4.454 13.192c.47 1.357-.354 2.907-2.473 4.649-1.85 1.521-3.415 1.935-4.693 1.243-27.803-15.364-27.747-15.014-28.482-15.908-2.322-2.825 3.117-11.255 6.574-9.087l17.214 10.45-6.519-15.466c-.604-1.441-.096-2.827 1.522-4.157s3.076-1.561 4.373-.69l13.916 9.384-6.927-18.909c-1.458-3.791 7.801-7.477 10.223-4.532.35.425.572.854.672 1.289l9.395 29.568c.43 1.389-.298 2.86-2.184 4.412z" fill="#9bbecf"/><path d="m423.695 402.102c14.896 0 27.016-12.119 27.016-27.016v-50.651c0-14.896-12.12-27.016-27.016-27.016-7.026 0-51.873 0-58.144 0 66.749-80.91 7.921-204.007-97.402-202.6l9.185-7.553c12.014-9.879 13.75-27.69 3.872-39.703l-30.656-37.282c-9.879-12.015-27.69-13.751-39.704-3.873l-139.29 114.535c-12.013 9.879-13.75 27.69-3.872 39.704l30.656 37.281c5.57 6.773 13.661 10.28 21.813 10.28 14.501 0 20.814-9.885 28.438-15.08-7.777 36.95 1.572 75.256 25.524 104.29-13.164 0-46.188 0-58.144 0-14.897 0-27.016 12.12-27.016 27.016v50.651c0 14.897 12.119 27.016 27.016 27.016h8.269v89.886h-23.772c-5.523 0-10 4.477-10 10s4.477 10 10 10h108.878c5.523 0 10-4.477 10-10s-4.477-10-10-10h-23.772v-89.886h168.521v89.886h-23.772c-5.523 0-10 4.477-10 10s4.477 10 10 10h108.878c5.523 0 10-4.477 10-10s-4.477-10-10-10h-23.772v-89.886h8.266zm7.016-77.667v50.651c0 3.869-3.147 7.016-7.016 7.016-12.41 0-22.965 0-35.331 0l23.101-64.683h12.23c3.869-.001 7.016 3.147 7.016 7.016zm-138.119 57.667 23.101-64.683h27.153l-23.101 64.683zm-95.772 0 23.101-64.683h27.153l-23.101 64.683zm42.131-84.684c-1-2.837-1.931-5.693-2.819-8.558 22.665 3.023 44.699 3.028 67.403 0-.891 2.87-1.819 5.727-2.818 8.559-22.03-.001-39.82-.001-61.766-.001zm-19.304-162.717c-2.022 5.852-3.827 11.764-5.414 17.728-8.163 1.813-16.237 4.017-24.182 6.609zm-49.143 53.459c12.518-5.787 25.566-10.477 38.933-14.001-5.159 29.41-5.18 59.6-.017 89.084-13.375-3.527-26.431-8.222-38.956-14.016-5.902-19.28-6.242-40.592.04-61.067zm60.187-18.586c26.111-4.397 52.2-4.4 78.343.009.718 3.387 1.372 6.789 1.942 10.21.903 5.419 6.027 9.13 11.508 8.221 5.448-.908 9.128-6.06 8.221-11.508-.13-.778-.273-1.553-.41-2.329 13.346 3.523 26.375 8.207 38.874 13.987 5.971 19.384 6.234 40.802.032 61.063-12.511 5.787-25.553 10.478-38.913 14.003.314-1.78.623-3.56.899-5.346.843-5.458-2.899-10.566-8.357-11.409-5.46-.848-10.566 2.899-11.409 8.357-.672 4.349-1.473 8.681-2.387 12.989-26.129 4.407-52.235 4.411-78.379.004-6.841-32.405-6.789-65.944.036-98.251zm106.979 127.844h-15.85c1.327-4.119 2.552-8.271 3.67-12.453 10.535-2.342 20.92-5.339 31.071-8.973-5.221 7.882-11.549 15.1-18.891 21.426zm18.796-136.039c-10.121-3.62-20.476-6.604-30.978-8.939-2.39-8.942-5.263-17.747-8.607-26.38 16.039 8.178 29.683 20.404 39.585 35.319zm-65.255-44.379c4.87 10.225 8.991 20.765 12.34 31.548-21.915-2.925-43.959-3.131-67.407-.004 3.326-10.749 7.436-21.292 12.318-31.543 14.145-2.959 28.695-2.952 42.749-.001zm-165.869 69.352c-3.496 2.874-8.679 2.369-11.554-1.127l-30.656-37.281c-2.875-3.496-2.369-8.679 1.126-11.554l139.29-114.534c1.525-1.254 3.371-1.865 5.206-1.865 2.372 0 4.727 1.021 6.347 2.991l30.656 37.282c2.881 3.505 2.376 8.672-1.126 11.553-14.084 11.582-121.039 99.529-139.289 114.535zm57.763 89.64c10.156 3.636 20.547 6.634 31.087 8.977 1.112 4.174 2.333 8.325 3.661 12.45-8.894 0-6.994 0-15.857 0-7.342-6.327-13.67-13.545-18.891-21.427zm15.579 41.426-23.102 64.683h-.01-26.135l23.102-64.683zm-89.729 57.667v-50.651c0-3.869 3.147-7.016 7.016-7.016h35.33l-23.101 64.684h-12.229c-3.869 0-7.016-3.148-7.016-7.017zm35.284 116.903v-89.886h21.333v89.886zm100.971-109.886 23.102-64.683h26.145l-23.102 64.683zm118.874-64.684h26.145l-23.101 64.683c-5.82 0-19.119 0-26.145 0zm31.342 174.57h-21.333v-89.886h21.333z"/><path d="m150.269 143.867-9.395-29.568c-1.18-5.096-12.485-.892-10.895 3.243l6.927 18.908-13.916-9.384c-1.297-.871-2.755-.64-4.373.69s-2.125 2.716-1.522 4.157l6.519 15.467-17.214-10.45c-3.453-2.166-8.904 6.253-6.574 9.087.729.887.769.593 28.482 15.907 1.279.692 2.844.277 4.694-1.243 2.118-1.742 2.942-3.292 2.473-4.649l-4.454-13.192 12.083 6.919c1.24.724 2.902.23 4.982-1.481 1.886-1.551 2.614-3.022 2.183-4.411z"/><path d="m171.767 126.189c1.279.692 2.844.277 4.694-1.243 2.118-1.742 2.942-3.292 2.473-4.649l-4.454-13.192 12.082 6.919c1.24.724 2.902.23 4.982-1.481 1.887-1.552 2.615-3.023 2.184-4.412-10.399-32.564-9.349-29.982-10.067-30.856-2.437-2.961-11.688.724-10.223 4.531l6.927 18.909-13.916-9.384c-1.297-.871-2.754-.64-4.373.69-1.618 1.331-2.126 2.716-1.522 4.157l6.519 15.467-17.214-10.45c-3.452-2.166-8.907 6.253-6.573 9.087.732.892.736.575 28.481 15.907z"/><path d="m215.227 90.453c1.279.691 2.844.277 4.693-1.243 2.118-1.742 2.942-3.292 2.473-4.649l-4.454-13.192 12.083 6.919c1.24.724 2.901.23 4.982-1.481 1.887-1.552 2.615-3.023 2.184-4.412l-9.395-29.568c-.1-.435-.323-.864-.672-1.289-2.421-2.946-11.681.741-10.223 4.532l6.927 18.909-13.916-9.384c-1.297-.871-2.754-.641-4.373.69s-2.125 2.716-1.522 4.157l6.519 15.466-17.214-10.45c-3.457-2.168-8.896 6.262-6.574 9.087.735.894.68.544 28.482 15.908z"/><path d="m330.587 225.388c3.985-3.984 3.806-10.339 0-14.14-3.338-3.338-8.631-3.901-12.62-1.24-5.176 3.385-6.029 10.895-1.52 15.38 3.833 3.913 10.334 3.886 14.14 0z"/></g></g></svg>